<mxfile host="app.diagrams.net" modified="2023-09-13T06:32:48.217Z" agent="Mozilla/5.0 (Macintosh; Intel Mac OS X 10_15_7) AppleWebKit/537.36 (KHTML, like Gecko) Chrome/116.0.0.0 Safari/537.36" version="21.7.4" etag="iYC-esV3pas2fG8iIYBW" type="github">
  <diagram name="第 1 页" id="-AFYeG-Iu3g1CuxyxX95">
    <mxGraphModel>
      <root>
        <mxCell id="0" />
        <mxCell id="1" parent="0" />
      </root>
    </mxGraphModel>
  </diagram>
</mxfile>
